/* XPM */
static const char *pg_xpm[] = {
/* columns rows colors chars-per-pixel */
"64 64 209 2",
"2. c #ACE977",
"k  c #659FE6",
"|. c #74461C",
"c. c #0C4E04",
"*X c #A47A44",
".X c #C8FE6D",
"A. c #61D805",
"m  c #B43B21",
"3X c #281A0C",
";X c #846234",
"5. c #C72F04",
"f  c #AC6257",
"w  c #BC8A87",
"_. c #C95521",
"o. c #2896B4",
"_  c #0F2909",
"H  c #446ED4",
"#X c #E49244",
"/. c #77DF18",
"2  c #6F98E0",
"Y  c #3C4E9C",
"=. c #2C7704",
"g  c #04265C",
"h  c #691C12",
"*  c #517AD4",
"3. c #A1E573",
"z  c #C87A6A",
">  c #2A6AD1",
"I  c #EA7A4B",
"@. c #85DE41",
"t. c #6C6A84",
"S. c #10A204",
"OX c #D2FD8D",
"P  c #2EB3F7",
"^. c #D6B64E",
"s. c #79D93E",
"d. c #42C404",
"   c #040204",
"~. c #A7FE1C",
"]. c #2EB406",
"&  c #4C6ACC",
"V. c #51CD05",
"z. c #68D03E",
"+  c #042379",
"`  c #9A2512",
"R  c #4BB2FA",
" X c #FCE58D",
"k. c #E44504",
"u  c #1567D6",
"Q  c #146EA4",
"Y. c #FCAD59",
"*. c #4CC60B",
"Q. c #C8AE44",
"y  c #3492EC",
"%X c #CFF3B3",
"}. c #BCFE53",
"Z. c #5CB604",
"e. c #CE3807",
"'  c #41A1F1",
"9. c #5C6EA4",
"-. c #E8622A",
"XX c #54361C",
"R. c #ACFC38",
"b. c #84D61C",
".. c #B82B05",
"(  c #D7623C",
"9  c #1477E1",
" . c #176504",
"<. c #5CC244",
"p  c #C8948E",
"&. c #94DE6A",
"M. c #FB8532",
"5X c #249A04",
"%  c #7391DC",
"K  c #FB8B4A",
"h. c #7AE806",
"1. c #34C6C4",
"C. c #059804",
"u. c #A4E83C",
":. c #42A8F4",
",. c #9BF03A",
"V  c #0C4888",
"a  c #9F4941",
"U  c #AE5547",
"j. c #173604",
":  c #0E54CC",
"E  c #0C3654",
"G. c #6CC307",
"4. c #288804",
"B  c #1F86E4",
"r. c #D94107",
"=  c #062E82",
"T. c #FCC770",
"#. c #3CB674",
"7  c #862310",
"8  c #598DDF",
"E. c #FC8C34",
";. c #DC4E1C",
"L  c #544274",
"a. c #8FE83B",
"N  c #CB8C82",
"n. c #54CE4C",
"@  c #041328",
"6. c #EC6A2C",
"g. c #ACF35A",
"L. c #6CE004",
":X c #E2FEB5",
"G  c #74425C",
"e  c #913E3C",
"4  c #145CD1",
"O. c #76D14A",
"~  c #315BBC",
"C  c #892721",
"v  c #54ACF4",
"l  c #4797E9",
"c  c #0C3990",
"+. c #B5EE7C",
".  c #040A25",
"!. c #96F412",
"F. c #FB9C4C",
"&X c #D08C1C",
"-X c #E2FBC7",
"f. c #F77C3E",
"p. c #A3EF52",
"$. c #48C65C",
"v. c #EE4C04",
"'. c #DC9A4C",
"K. c #88F206",
"}  c #2CBA9C",
"=X c #DCFEA0",
"1  c #180805",
"2X c #F5FEEA",
"x. c #9EE85B",
"i. c #B4F266",
"n  c #CC8476",
"d  c #7C3E54",
",  c #0D4CC5",
">X c #5C4624",
"`. c #FCD881",
"N. c #D47A30",
"r  c #441309",
"%. c #67D941",
"(. c #9AFC05",
"|  c #39BC05",
"5  c #5C1714",
"1X c #0C7204",
"-  c #3C64CC",
"q. c #091904",
"8. c #DC5C2C",
",X c #D49A27",
"4X c #7C7214",
";  c #4585DD",
"@X c #D4D264",
"y. c #4CAE6C",
"o  c #143BB1",
"<X c #EFFED2",
"S  c #D67A5F",
"$X c #C4EEA4",
"J. c #9CAA24",
"U. c #FC9441",
"6  c #946268",
"/  c #E77445",
"[  c #38A490",
"<  c #360E0C",
"0. c #93E453",
"Z  c #B97267",
">. c #89DC55",
"!  c #D67156",
"s  c #3E7BD4",
"T  c #46BBFC",
"J  c #21A5F4",
"i  c #842E2C",
"{. c #9C521C",
"{  c #44CCA0",
"0  c #6C2414",
")  c #38BFFB",
"b  c #C75F47",
"7. c #F67437",
"]  c #54C430",
"oX c #FCF299",
"#  c #3050C4",
"H. c #FBA450",
"m. c #FA5604",
"w. c #BC320C",
"6X c #39B328",
"+X c #382814",
"^  c #147EBC",
"W. c #FCB75F",
"X. c #D96F49",
"j  c #260C04",
"X  c #04184E",
"D  c #983224",
"W  c #B64A2E",
"l. c #2196E5",
"I. c #FC7922",
"D. c #FB630F",
"B. c #A6F53F",
"M  c #5BA3EC",
"A  c #BC8A4C",
"q  c #B87C78",
"x  c #A9290B",
"F  c #CB705B",
"$  c #6185D7",
"t  c #6298E4",
"3  c #3A75D2",
"O  c #204EC4",
"). c #088604",
"P. c #FC6D15",
"[. c #20AD04",
/* pixels */
"                                                                                        . X                                     ",
"                                                                                      . o O + .                                 ",
"                                                                                    @ # $ % & o .                               ",
"                                                                                  + & % % % % * O + .                           ",
"                                                                                = & % % % % % % % - o .                         ",
"                                                                            . o $ % % % % % % % % % ; : =                       ",
"                                                                          . O % % % % % % % % % % $ % $ > , @                   ",
"                                    < 1                                 + # % % % % % % % % % % % % % % 2 3 4 X                 ",
"                                  5 6 7                               = - % % % % % % % % % % % $ % % 8 ; 9 , X                 ",
"                                0 q w w e r                       . = $ 2 % % % % % % % % % % % % t 8 y u o , +                 ",
"                            1 i w w p p w a 5                   . , $ 2 2 2 2 % % % % % % % 8 t t 2 s u , , , +                 ",
"                          1 d w p p p p p p f 5               @ 4 2 2 2 2 2 2 2 2 2 % 2 t t t 2 8 y u : : : : g                 ",
"                        < a w p p p p p p p p q h j         = - 2 2 2 k k k k 2 k k k k k k k l t 3 : : 4 u , .                 ",
"                      r 6 p p p p p p p p p w p z x 1     c * 2 k 2 k k k k k k k k v k k k l k 9 4 4 u u , .                   ",
"                    5 b q w p p p p p p p p p p w n m < c ; M 2 k k k k k v k v k k v k v M l > 4 u u u :                       ",
"                  0 f p w p w p w p p p p p N N N n a # t k 2 k k k v k v k k v v v k v t B u 4 9 u 9 V                         ",
"              1 C Z w A N A w A p A p A w N N n S a # t t 2 k k k k k v k v v v v v v v v l 9 9 u 9 V                           ",
"            1 D z q n n w N N p A N n N N N S F G H k k k k k k k v k v v v v v v v v v M v J B 9 c                             ",
"          < D q A n q n S A n n n n K n S K b L H t k k k k k v v v v v v v v v v v v v v v v P B X                             ",
"        5 a A z q n z z z n S n I S z S z U Y 8 k k k k k k v v k v v v v v v v v T v T v T R R P J E                           ",
"      5 W Z z z z z z S z F S S n I S I a # * 2 k k v k v v v v v v v v v T v T v T T T T T T v T T P Q                         ",
"  1 5 b Z z Z z F z S F S S F I ! S ! d ~ % k k v k k k v k v v v v v v T v T v T T T T T T T T T T P J ^ @                     ",
"  h W F Z F ! F F F F S F ! I F / ( d - 8 t k k k v k v v v v v v T T v R R T T T T T T T T T T T T T T ) J _                   ",
"  ` ` W F b F F F ! ! ! ! ! ! ! ! ( a s k M k k v k v v v v v v T v v ' ] [ T T T T T T T { T T T { T ) P } |  .                ",
"  7 ` x ..b b F ( b ! ( X./ X./ / / ( W * t k v k v v v v T v T v T o.O.+.@.#.T T T { T T T T T T T T ) $.%.&.*.=.              ",
"  ` x ` ....m ( ! ( X.( X.-.X.-./ / I ! ;.s k v v v v v T v v T :.[ >.+.+.+.,.<.) T T T T T T T ) 1.) $.&.2.3.3.] 4.            ",
"  ` x x ....5.5.;.( / ( 6.( / / 6./ 7./ / 8.9.k v v v T v T T R [ &.+.+.+.+.2.2.%.1.T T T T T { ) ) %.0.3.2.3.3.3.%.4.q.        ",
"1 ` ..x ..w.e...5.r.8./ ( 6./ 6.6./ 7./ 7.7.6.t.v v T T v T y y.u.+.i.+.+.+.+.3.p.a.1.T { { { ) 1.%.p.3.3.3.3.3.3.&.s.d.q.      ",
"  x ........5.;.5.5.5.;.7.( 7.-./ 7.-.7.f.7.7.7.6 v v v T ' <.3.+.i.2.i.+.g.i.g.g.3.h.1.) ) 1.{ a.p.p.p.p.p.0.p.0.3.&.>.d.j.    ",
"  ....5...5.5.5.;.e.e.e.k.-.-.6./ 7.7.7.f.7.f.f.f.f :.P l.z.x.i.g.3.i.g.g.g.g.g.g.g.g.,.{ 1.{ a.p.p.p.p.0.0.0.0.0.0.0.0.>.] c.  ",
"  < ..5.5.5.5.5.e.-.k.e.k.k.v.6.6.7.7.7.7.7.f.f.f.f.( ; b.i.g.p.i.g.g.g.g.g.g.p.g.p.p.p.,.%.a.p.p.p.p.p.p.p.p.0.a.0.0.%.0.n.|   ",
"    < 5.5.5.5.5.e.e.-.v.k.k.k.v.m.6.7.7.7.f.f.f.7.K M.N.] B.g.g.g.g.g.g.g.g.p.g.p.p.p.p.p.,.p.p.p.,.,.,.,.,.a.a.a.0.a.a.V.| C.  ",
"      1 ..5.5.k.e.k.e.-.-.k.k.k.v.v.m.7.f.7.f.K f.K K K M.Z.B.B.p.g.p.p.p.p.p.p.p.p.p.p.p.,.,.,.,.,.,.,.a.a.a.a.a.a.%.A.| S.S.  ",
"        1 ..e.k.e.k.k.k.-.7.k.v.v.v.m.m.D.f.f.K K K F.K F.K G.,.B.B.B.B.g.B.p.B.p.B.p.,.,.,.,.,.,.,.,.,.,.a.a.a.a.%.A.d.S.C.C.  ",
"            ` k.k.k.k.k.k.-.I v.v.m.m.D.D.D.7.f.K K H.F.H.F.F.J.K.B.B.B.B.B.B.B.B.B.,.B.,.,.,.,.,.,.,.a.a.K.h.L.L.L.$.S.S.C.C.  ",
"            1 h k.k.k.k.k.v.-.K D.m.D.D.P.f.I.f.K U.K F.H.H.Y.T.J.h.R.B.B.B.B.B.B.B.B.,.B.,.,.,.,.K.K.h.h.h.h.L.L.$.C.S.C.C.C.  ",
"                5 k.v.v.v.v.v.m.K 7.P.7.7.M.E.E.E.F.F.F.F.Y.H.Y.W.Q.h.R.!.R.~.,.!.R.!.,.!.K.K.K.K.K.h.h.h.h.h.%.$.S.S.C.C.C.C.  ",
"                1 < v.v.m.m.v.m.D.K K I.E.E.E.U.F.H.F.Y.Y.Y.Y.Y.W.W.^./.~.,.(.~.!.(.(.(.(.K.K.K.K.K.K.h.h.h.%.| S.S.C.C.C.C.C.  ",
"                    j ;.D.6.D.D.D.m.K K E.U.H.H.H.H.W.W.W.T.W.T.W.T.T.Q.,.~.R.,.~.(.!.!.(.(.K.K.K.K.K.K.h.a.$.S.S.S.S.S.S.).q.  ",
"                      1 _.I.7.7.P.7.P.E.F.H.H.H.W.W.W.T.W.T.T.`.T.`.'.x.R.R.R.R.!.R.R.!.!.(.(.(.K.K.K.K.%.].S.[.[.[.S.C.).q.    ",
"                          {.K M.f.I.f.I.E.F.Y.W.T.T.T.T.`.T.`.T.`.^.i.}.}.R.}.R.R.R.R.~.,.(.!.(.K.K.!.%.$.[.[.[.[.S.[.).        ",
"                            |.E.U.U.E.M.I.E.H.W.T.T.T.`.`. X`.`.^.i..X}.}..X}.}.g.R.R.R.R.~.!.(.(.B.%.].[.[.[.[.[.S. .          ",
"                              XXH.U.F.U.E.E.E.U.T.`. X`.`.oX`.^.OX.X.X.X.Xi..X}.}.g.R.R.B.R.!.~.,.%.].].[.[.[.[.[. .            ",
"                                +XH.Y.H.F.U.M.M.F.W. X XoX`.@XOX.XOXOXOX.XOX.X.X}..X}.g.R.R.B.g.%.].].].].[.[.[.c.              ",
"                                  q.#XY.Y.F.U.E.M.E.W.oXT.@X$XOXOX%X.X%XOX+.OX+..X.Xi.g.}.R.g.n.].| ].| | | [.j.                ",
"                                    q.&XW.Y.H.U.E.M.f.F.$XOXOX%X%XOX%XOX%XOX%XOX+..X}..Xg.p.n.| | | d.| ].S._                   ",
"                                        *XW.Y.H.U.E.I.&X2.=X=X=X-X%X-X%X=X%XOXOXOX+.OXi.p.$.| d.d.| d.| S.q.                    ",
"                                          ;XW.H.H.U.M.&Xz.$X-X-X:X-X-X:X-X-XOX%X%XOX+.0.d.d.d.d.d.d.d.).                        ",
"                                            >XY.H.F.E.,X*.s.$X-X-X<X-X-X-X-X%X=XOX%X@.V.d.d.d.d.d.d.1X                          ",
"                                              +XH.H.U.,XV.*.%.%X2X2X2X2X<X-X-X%X%X%.V.V.V.V.V.d.d.c.                            ",
"                                                3X,XF.,XV.V.*.%.%X2X2X2X-X-X-X%X0.V.V.V.V.V.V.d.c.                              ",
"                                                q.  &X,XV.V.V.A.n.%X2X2X-X2X%X%.A.V.A.V.V.V.| _                                 ",
"                                                      4XV.V.A.V.A.A.$X-X2X$X@.A.A.A.V.A.A.]._                                   ",
"                                                      q.| A.A.A.A.A.%.2.-X%.A.A.A.A.A.A.5X.                                     ",
"                                                        q.[.A.A.L.A.L.a.+.%.L.L.L.A.A.).                                        ",
"                                                            5XL.L.L.L.a.p.L.L.L.A.A. .                                          ",
"                                                              =.A.L.L.a.p.h.L.L.A.c.                                            ",
"                                                                 .L.L.K.,.h.L.V._                                               ",
"                                                                  j.A.K.a.h.d._                                                 ",
"                                                                  . _ V.h.6X.                                                   ",
"                                                                      q.=.                                                      ",
"                                                                                                                                ",
"                                                                                                                                ",
"                                                                                                                                "
};
