/* XPM */
static const char * record_xpm[] = {
"64 64 530 2",
"  	c None",
". 	c #000000",
"+ 	c #020000",
"@ 	c #050101",
"# 	c #060101",
"$ 	c #010000",
"% 	c #100505",
"& 	c #2B1110",
"* 	c #4E2120",
"= 	c #6A2F2E",
"- 	c #793636",
"; 	c #7F3838",
"> 	c #813938",
", 	c #803939",
"' 	c #7A3836",
") 	c #6C3030",
"! 	c #512221",
"~ 	c #2D1111",
"{ 	c #110505",
"] 	c #070202",
"^ 	c #2E1212",
"/ 	c #692E2E",
"( 	c #974342",
"_ 	c #AB4B4A",
": 	c #AC4847",
"< 	c #AA4543",
"[ 	c #A74241",
"} 	c #A6413F",
"| 	c #A5413F",
"1 	c #A64241",
"2 	c #A94543",
"3 	c #AC4947",
"4 	c #AE4D4B",
"5 	c #AD504E",
"6 	c #9B4746",
"7 	c #6D3130",
"8 	c #321313",
"9 	c #080202",
"0 	c #351515",
"a 	c #833B3A",
"b 	c #AD4D4B",
"c 	c #AC4645",
"d 	c #A23C3B",
"e 	c #9D3836",
"f 	c #9C3735",
"g 	c #9D3937",
"h 	c #9D3A38",
"i 	c #9E3A38",
"j 	c #9E3B39",
"k 	c #9E3C3A",
"l 	c #9E3D3B",
"m 	c #9F3E3C",
"n 	c #A0403E",
"o 	c #A54544",
"p 	c #AF4F4D",
"q 	c #B15453",
"r 	c #883E3E",
"s 	c #3B1616",
"t 	c #1A0A09",
"u 	c #713332",
"v 	c #AE4E4D",
"w 	c #A94341",
"x 	c #9F3C3A",
"y 	c #9F3D3B",
"z 	c #A03F3D",
"A 	c #A1413F",
"B 	c #A14240",
"C 	c #A34443",
"D 	c #AD4F4D",
"E 	c #B25655",
"F 	c #793736",
"G 	c #1E0909",
"H 	c #371717",
"I 	c #9B4846",
"J 	c #AE4947",
"K 	c #9E3937",
"L 	c #A24341",
"M 	c #A24442",
"N 	c #A34442",
"O 	c #A24443",
"P 	c #A54746",
"Q 	c #B35555",
"R 	c #A14E4D",
"S 	c #3E1818",
"T 	c #4B2120",
"U 	c #AC4F4D",
"V 	c #A7413F",
"W 	c #9B3634",
"X 	c #9F3B39",
"Y 	c #A24342",
"Z 	c #A34544",
"` 	c #A44645",
" .	c #A44746",
"..	c #AD5150",
"+.	c #B35959",
"@.	c #522322",
"#.	c #040000",
"$.	c #4E2222",
"%.	c #AF4F4E",
"&.	c #A23D3B",
"*.	c #9F3F3D",
"=.	c #A54847",
"-.	c #A54948",
";.	c #A64A49",
">.	c #A54A49",
",.	c #AB504F",
"'.	c #B55A59",
").	c #562323",
"!.	c #421D1C",
"~.	c #AE504F",
"{.	c #9C3836",
"].	c #A14340",
"^.	c #A34645",
"/.	c #A64B4A",
"(.	c #A74C4B",
"_.	c #AB5150",
":.	c #B55C5B",
"<.	c #4B1E1D",
"[.	c #281010",
"}.	c #A64E4C",
"|.	c #A74D4C",
"1.	c #A74E4D",
"2.	c #A84E4D",
"3.	c #A84F4E",
"4.	c #AE5655",
"5.	c #AE5756",
"6.	c #2F1010",
"7.	c #0D0404",
"8.	c #89403F",
"9.	c #AC4846",
"0.	c #A44544",
"a.	c #A64948",
"b.	c #A9504F",
"c.	c #A95150",
"d.	c #B45C5B",
"e.	c #934645",
"f.	c #110303",
"g.	c #532525",
"h.	c #B3514F",
"i.	c #AA5150",
"j.	c #AA5251",
"k.	c #AA5352",
"l.	c #AA5453",
"m.	c #BA6160",
"n.	c #5B2625",
"o.	c #180909",
"p.	c #9F4B4A",
"q.	c #A54240",
"r.	c #AB5453",
"s.	c #AB5554",
"t.	c #B05B5A",
"u.	c #A75453",
"v.	c #1E0808",
"w.	c #562827",
"x.	c #B45150",
"y.	c #A74B4A",
"z.	c #AC5655",
"A.	c #AC5756",
"B.	c #BA6363",
"C.	c #602828",
"D.	c #944746",
"E.	c #A74544",
"F.	c #AD5857",
"G.	c #AD5958",
"H.	c #B25F5E",
"I.	c #9D4D4C",
"J.	c #110403",
"K.	c #331615",
"L.	c #B05351",
"M.	c #A03F3E",
"N.	c #AE5958",
"O.	c #AE5A59",
"P.	c #AF5B5A",
"Q.	c #AF5C5B",
"R.	c #B86261",
"S.	c #3B1514",
"T.	c #632F2E",
"U.	c #B0504E",
"V.	c #9F3C3B",
"W.	c #9D3938",
"X.	c #A13E3D",
"Y.	c #A34342",
"Z.	c #A74B49",
"`.	c #AB514F",
" +	c #AF5756",
".+	c #B15B59",
"++	c #B25D5B",
"@+	c #B35E5C",
"#+	c #BC6664",
"$+	c #6C2F2E",
"%+	c #864040",
"&+	c #AA4948",
"*+	c #A14140",
"=+	c #9B3332",
"-+	c #942624",
";+	c #8E1A19",
">+	c #8A1210",
",+	c #870D0B",
"'+	c #860A08",
")+	c #850806",
"!+	c #840605",
"~+	c #850605",
"{+	c #860705",
"]+	c #890906",
"^+	c #8C0B08",
"/+	c #8F0F0B",
"(+	c #931511",
"_+	c #981F1B",
":+	c #9F2D29",
"<+	c #A73E3A",
"[+	c #AF4F4C",
"}+	c #B55B58",
"|+	c #B7615E",
"1+	c #BC6764",
"2+	c #924544",
"3+	c #090000",
"4+	c #140808",
"5+	c #A04D4B",
"6+	c #A54644",
"7+	c #A44847",
"8+	c #A1403E",
"9+	c #972C2A",
"0+	c #8D1917",
"a+	c #870C0A",
"b+	c #840604",
"c+	c #830503",
"d+	c #840503",
"e+	c #850604",
"f+	c #870604",
"g+	c #890704",
"h+	c #8B0704",
"i+	c #8C0803",
"j+	c #8E0803",
"k+	c #8F0803",
"l+	c #900802",
"m+	c #910701",
"n+	c #920802",
"o+	c #930A04",
"p+	c #97110B",
"q+	c #9E211B",
"r+	c #A83833",
"s+	c #B45450",
"t+	c #AB5452",
"u+	c #180707",
"v+	c #230E0E",
"w+	c #AD5452",
"x+	c #A44543",
"y+	c #901E1C",
"z+	c #860704",
"A+	c #880704",
"B+	c #8B0804",
"C+	c #8D0804",
"D+	c #8F0903",
"E+	c #910903",
"F+	c #930903",
"G+	c #940A03",
"H+	c #960A03",
"I+	c #970A03",
"J+	c #980A03",
"K+	c #980A02",
"L+	c #970901",
"M+	c #970A02",
"N+	c #9B130C",
"O+	c #AA3430",
"P+	c #2A0B0B",
"Q+	c #2D1313",
"R+	c #AF5554",
"S+	c #9C3634",
"T+	c #8E1917",
"U+	c #870704",
"V+	c #8A0704",
"W+	c #8C0804",
"X+	c #930A03",
"Y+	c #990B03",
"Z+	c #9A0B03",
"`+	c #9B0B03",
" @	c #9C0C03",
".@	c #9D0C03",
"+@	c #9B0A02",
"@@	c #A9221C",
"#@	c #350D0C",
"$@	c #311515",
"%@	c #AF5353",
"&@	c #8F1D1C",
"*@	c #900903",
"=@	c #950A03",
"-@	c #9C0B03",
";@	c #9E0C03",
">@	c #A00C02",
",@	c #A00D03",
"'@	c #A10D02",
")@	c #AD221B",
"!@	c #3C0E0D",
"~@	c #B05555",
"{@	c #A54947",
"]@	c #970B03",
"^@	c #A00D02",
"/@	c #A20D02",
"(@	c #A30D02",
"_@	c #A40E02",
":@	c #A50E02",
"<@	c #A60E02",
"[@	c #A50D01",
"}@	c #B1231A",
"|@	c #3C0F0D",
"1@	c #2D1414",
"2@	c #B05857",
"3@	c #8F1C1A",
"4@	c #920903",
"5@	c #980B03",
"6@	c #A80E02",
"7@	c #A90F02",
"8@	c #AA0F02",
"9@	c #AB0F02",
"0@	c #AA0E01",
"a@	c #B3261D",
"b@	c #360D0C",
"c@	c #AE5857",
"d@	c #A64C4B",
"e@	c #A40D02",
"f@	c #AC0F02",
"g@	c #AD1002",
"h@	c #AE1002",
"i@	c #AF1002",
"j@	c #B32921",
"k@	c #2B0A09",
"l@	c #130707",
"m@	c #A15150",
"n@	c #AA504F",
"o@	c #9B3433",
"p@	c #860604",
"q@	c #9F0C03",
"r@	c #B11002",
"s@	c #B21102",
"t@	c #B31101",
"u@	c #B41101",
"v@	c #B51305",
"w@	c #AD2A23",
"x@	c #190606",
"y@	c #874444",
"z@	c #B05655",
"A@	c #870B09",
"B@	c #B51101",
"C@	c #B71201",
"D@	c #B81201",
"E@	c #B91201",
"F@	c #B81200",
"G@	c #BD1909",
"H@	c #952721",
"I@	c #0A0101",
"J@	c #633030",
"K@	c #B75E5D",
"L@	c #9A3432",
"M@	c #860B09",
"N@	c #B21101",
"O@	c #BB1301",
"P@	c #BC1301",
"Q@	c #BD1301",
"R@	c #BE1301",
"S@	c #BC1200",
"T@	c #C52214",
"U@	c #701F1B",
"V@	c #AC4B4A",
"W@	c #880E0C",
"X@	c #AD0F02",
"Y@	c #B01002",
"Z@	c #B61201",
"`@	c #BE1401",
" #	c #BF1401",
".#	c #C11401",
"+#	c #C21501",
"@#	c #C21401",
"##	c #C52C20",
"$#	c #3E100E",
"%#	c #0D0302",
"&#	c #882827",
"*#	c #8D0F0D",
"=#	c #A00C03",
"-#	c #BA1201",
";#	c #C41500",
">#	c #C51500",
",#	c #C61500",
"'#	c #C71500",
")#	c #CB1B08",
"!#	c #A72D25",
"~#	c #120303",
"{#	c #501515",
"]#	c #9F2120",
"^#	c #B61101",
"/#	c #C01401",
"(#	c #C31501",
"_#	c #C81600",
":#	c #CA1600",
"<#	c #CB1700",
"[#	c #CC1700",
"}#	c #CB1600",
"|#	c #D22A1A",
"1#	c #651B18",
"2#	c #160404",
"3#	c #922827",
"4#	c #8C0E0D",
"5#	c #A80F02",
"6#	c #C41501",
"7#	c #C71600",
"8#	c #CE1800",
"9#	c #CF1900",
"0#	c #CF1A00",
"a#	c #D21E08",
"b#	c #B63127",
"c#	c #1E0606",
"d#	c #4C1413",
"e#	c #9F2322",
"f#	c #CD1800",
"g#	c #D01C00",
"h#	c #D11D00",
"i#	c #D21D00",
"j#	c #D7321F",
"k#	c #601B17",
"l#	c #0C0101",
"m#	c #7E2322",
"n#	c #961817",
"o#	c #A70E02",
"p#	c #C91600",
"q#	c #D31F00",
"r#	c #D32000",
"s#	c #DA2D11",
"t#	c #9F2E24",
"u#	c #110202",
"v#	c #240808",
"w#	c #982B29",
"x#	c #8E100E",
"y#	c #9F0C02",
"z#	c #D52200",
"A#	c #DA2A0A",
"B#	c #C13929",
"C#	c #300C0B",
"D#	c #3D0F0F",
"E#	c #9F2A29",
"F#	c #8A0C0A",
"G#	c #8D0803",
"H#	c #D01B00",
"I#	c #DA2906",
"J#	c #D03B26",
"K#	c #4D1512",
"L#	c #481312",
"M#	c #9E2827",
"N#	c #8C0D0C",
"O#	c #8E0804",
"P#	c #CE1900",
"Q#	c #D11C00",
"R#	c #DA2907",
"S#	c #D03A25",
"T#	c #5A1914",
"U#	c #461212",
"V#	c #9E2C2B",
"W#	c #911312",
"X#	c #D92A0D",
"Y#	c #C93928",
"Z#	c #551815",
"`#	c #030000",
" $	c #330C0C",
".$	c #8F2928",
"+$	c #9B1D1C",
"@$	c #860807",
"#$	c #D01B03",
"$$	c #D82D18",
"%$	c #B03227",
"&$	c #190505",
"*$	c #6A1D1D",
"=$	c #9F2827",
"-$	c #941615",
";$	c #850706",
">$	c #850603",
",$	c #C11300",
"'$	c #C71602",
")$	c #D12310",
"!$	c #CA3225",
"~$	c #80231E",
"{$	c #310C0C",
"]$	c #7B2221",
"^$	c #9D2726",
"/$	c #981A19",
"($	c #8B0C0A",
"_$	c #8C0702",
":$	c #910802",
"<$	c #960A02",
"[$	c #9B0B02",
"}$	c #A40D01",
"|$	c #A80E01",
"1$	c #AD0F01",
"2$	c #B21000",
"3$	c #B81202",
"4$	c #C01808",
"5$	c #C92416",
"6$	c #C32F23",
"7$	c #902722",
"8$	c #3B0F0D",
"9$	c #060000",
"0$	c #070000",
"a$	c #2C0A09",
"b$	c #631B1A",
"c$	c #8C2523",
"d$	c #9E2423",
"e$	c #A01E1B",
"f$	c #A01914",
"g$	c #A1150F",
"h$	c #A3140C",
"i$	c #A7140B",
"j$	c #AC160B",
"k$	c #B1190E",
"l$	c #B71E13",
"m$	c #BC2419",
"n$	c #B92A21",
"o$	c #A32A24",
"p$	c #711F1B",
"q$	c #320C0B",
"r$	c #080101",
"s$	c #0F0303",
"t$	c #2A0A09",
"u$	c #491312",
"v$	c #651C1A",
"w$	c #76201D",
"x$	c #7F201E",
"y$	c #83211D",
"z$	c #82211D",
"A$	c #7B201D",
"B$	c #6C1D1B",
"C$	c #4F1412",
"D$	c #2E0B0A",
"E$	c #050000",
". . . . . . . . . . . . . . . . . . . . . . . . . . . . . . . . . . . . . . . . . . . . . . . . . . . . . . . . . . . . . . . . ",
". . . . . . . . . . . . . . . . . . . . . . . . . . . . . . . . . . . . . . . . . . . . . . . . . . . . . . . . . . . . . . . . ",
". . . . . . . . . . . . . . . . . . . . . . . . . . . . . . . . . . . . . . . . . . . . . . . . . . . . . . . . . . . . . . . . ",
". . . . . . . . . . . . . . . . . . . . . . . . . . . . . . . . . . . . . . . . . . . . . . . . . . . . . . . . . . . . . . . . ",
". . . . . . . . . . . . . . . . . . . . . . . . . . . . . . . . . . . . . . . . . . . . . . . . . . . . . . . . . . . . . . . . ",
". . . . . . . . . . . . . . . . . . . . . . . . . . . . . . . . . . . . . . . . . . . . . . . . . . . . . . . . . . . . . . . . ",
". . . . . . . . . . . . . . . . . . . . . . . . . . . . . . . . . . . . . . . . . . . . . . . . . . . . . . . . . . . . . . . . ",
". . . . . . . . . . . . . . . . . . . . . . . . . . . . . . . . . . . . . . . . . . . . . . . . . . . . . . . . . . . . . . . . ",
". . . . . . . . . . . . . . . . . . . . . . . . . . . . . . . . . . . . . . . . . . . . . . . . . . . . . . . . . . . . . . . . ",
". . . . . . . . . . . . . . . . . . . . . . . . . . . . . . . . . . . . . . . . . . . . . . . . . . . . . . . . . . . . . . . . ",
". . . . . . . . . . . . . . . . . . . . . . . . . . . . . . + @ # @ + . . . . . . . . . . . . . . . . . . . . . . . . . . . . . ",
". . . . . . . . . . . . . . . . . . . . . . . . . $ % & * = - ; > , ' ) ! ~ { $ . . . . . . . . . . . . . . . . . . . . . . . . ",
". . . . . . . . . . . . . . . . . . . . . . . ] ^ / ( _ : < [ } | 1 2 3 4 5 6 7 8 9 . . . . . . . . . . . . . . . . . . . . . . ",
". . . . . . . . . . . . . . . . . . . . . @ 0 a b c d e f g h i j k l l m n o p q r s # . . . . . . . . . . . . . . . . . . . . ",
". . . . . . . . . . . . . . . . . . . . t u v w e f e g i j x y y m z n A A B B C D E F G . . . . . . . . . . . . . . . . . . . ",
". . . . . . . . . . . . . . . . . . $ H I J K f e g i j x y y m z n n A B L M N C O P Q R S $ . . . . . . . . . . . . . . . . . ",
". . . . . . . . . . . . . . . . . + T U V W e g i j X x y m z z n A B L Y M C Z `  . . ...+.@.#.. . . . . . . . . . . . . . . . ",
". . . . . . . . . . . . . . . . $ $.%.&.f g i j X x y m *.n n A B L Y N C Z `  .P =.-.;.>.,.'.).+ . . . . . . . . . . . . . . . ",
". . . . . . . . . . . . . . . . !.~.&.{.i i j x y m *.z n A B ].L M C Z ^.`  .=.-.>.;./.(.(._.:.<.. . . . . . . . . . . . . . . ",
". . . . . . . . . . . . . . . [.}.| g i j x y m m z n A A B L M C Z Z `  .=.-.>.;./.(.|.1.2.3.4.5.6.. . . . . . . . . . . . . . ",
". . . . . . . . . . . . . . 7.8.9.g j x y y m z n A B B L M C Z 0.`  .=.-.a.;./.(.|.2.2.3.b.c.c.d.e.f.. . . . . . . . . . . . . ",
". . . . . . . . . . . . . . g.h.j x x y m z n A A B L M C C Z `  .=.=.-.;./.(.(.|.2.3.b.c.i.j.k.l.m.n.. . . . . . . . . . . . . ",
". . . . . . . . . . . . . o.p.q.k y m *.n n A B L Y M C Z `  . .=.-.;././.(.|.2.3.b.b.c.j.k.l.r.s.t.u.v.. . . . . . . . . . . . ",
". . . . . . . . . . . . . w.x.k m z z n A B L Y N C Z `  .P =.-.;./.y.(.|.2.3.b.b.c.j.k.r.r.s.z.A.A.B.C.. . . . . . . . . . . . ",
". . . . . . . . . . . . 7.D.E.m z n A B L L M C Z ` `  .=.-.;.;./.(.|.2.2.3.b.c.j.k.k.r.s.z.A.F.F.G.H.I.J.. . . . . . . . . . . ",
". . . . . . . . . . . . K.L.M.n A B B L M C Z Z `  .=.-.-.;./.(.|.2.3.b.c.j.k.r.s.z.z.A.A.F.F.N.O.P.Q.R.S.. . . . . . . . . . . ",
". . . . . . . . . . . . T.U.n B B L M C Z 0.`  .=.-.;.;./.(.2.3.3.|.=.C M.V.W.h j X.Y.Z.`. +.+++@+@+++#+$+. . . . . . . . . . . ",
". . . . . . . . . . . # %+&+B L M C Z Z `  .=.-.-.;./.|.1.;.*+=+-+;+>+,+'+)+!+~+{+]+^+/+(+_+:+<+[+}+|+1+2+3+. . . . . . . . . . ",
". . . . . . . . . . . 4+5+6+L M C Z `  .7+=.-.;./.|./.8+9+0+a+b+c+c+d+d+b+e+f+g+h+i+j+k+l+m+n+o+p+q+r+s+t+u+. . . . . . . . . . ",
". . . . . . . . . . . v+w+x+C Z `  .P =.-.;./.|.-.f y+a+d+c+d+b+b+b+b+b+z+A+B+C+D+E+F+G+H+I+I+J+K+L+M+N+O+P+. . . . . . . . . . ",
". . . . . . . . . . . Q+R+Z `  . .=.-.;./.(.>.S+T+)+c+d+b+b+b+b+b+b+e+U+V+W+D+E+X+H+I+Y+Z+`+ @ @.@.@ @+@@@#@. . . . . . . . . . ",
". . . . . . . . . . . $@%@`  .=.-.>.;.(.|.m &@)+c+b+b+b+b+b+b+b+b+e+U+B+C+*@X+=@I+Z+-@.@;@>@,@'@'@'@'@>@)@!@. . . . . . . . . . ",
". . . . . . . . . . . $@~@=.-.a.;./.|.{@9+,+c+b+b+b+b+b+b+b+b+b+e+A+B+k+E+G+]@Z+ @;@^@/@(@_@:@<@<@<@<@[@}@|@. . . . . . . . . . ",
". . . . . . . . . . . 1@2@a.;./.(.2.*+3@b+d+b+b+b+b+b+b+b+b+b+e+U+B+j+4@=@5@`+.@>@/@_@<@6@7@8@9@9@9@9@0@a@b@. . . . . . . . . . ",
". . . . . . . . . . . v+c@(.d@|.2.i >+c+b+b+b+b+b+b+b+b+b+b+b+U+h+j+E+=@5@`+;@'@e@<@6@8@f@g@h@i@i@i@i@i@j@k@. . . . . . . . . . ",
". . . . . . . . . . . l@m@n@|.2.o@a+c+b+b+b+b+b+b+b+b+b+b+b+p@g+j+E+=@5@ @q@/@:@6@9@g@i@r@s@t@u@u@u@u@v@w@x@. . . . . . . . . . ",
". . . . . . . . . . . # y@z@2.=+A@d+b+b+b+b+b+b+b+b+b+b+b+e+A+W+*@G+I+ @q@/@<@7@9@h@r@t@B@C@D@D@E@E@F@G@H@I@. . . . . . . . . . ",
". . . . . . . . . . . . J@K@L@M@d+b+b+b+b+b+b+b+b+b+b+b+b+U+B+j+X+H+Z+q@/@:@7@f@i@N@B@C@E@O@P@Q@R@R@S@T@U@. . . . . . . . . . . ",
". . . . . . . . . . . . K.V@W@c+b+b+b+b+b+b+b+b+b+b+b+b+e+g+C+E+=@Y+.@'@:@7@X@Y@t@Z@E@O@`@ #.#+#+#@#@###$#. . . . . . . . . . . ",
". . . . . . . . . . . . %#&#*#c+b+b+b+b+b+b+b+b+b+b+b+b+p@B+D+X+5@-@=#_@6@9@i@t@Z@-#Q@ #@#;#>#,#'#'#)#!#~#. . . . . . . . . . . ",
". . . . . . . . . . . . . {#]#c+b+b+b+b+b+b+b+b+b+b+b+b+A+W+E+=@Y+.@/@<@8@h@N@^#E@Q@/#(#,#_#:#<#[#}#|#1#. . . . . . . . . . . . ",
". . . . . . . . . . . . . 2#3#4#c+b+b+b+b+b+b+b+b+b+b+e+g+j+4@I+`+>@e@5#f@r@B@E@P@/#6#7#:#[#8#9#0#a#b#c#. . . . . . . . . . . . ",
". . . . . . . . . . . . . . d#e#b+b+b+b+b+b+b+b+b+b+b+p@h+D+G+5@.@'@<@8@h@t@C@O@ #(#7#:#f#0#g#h#i#j#k#. . . . . . . . . . . . . ",
". . . . . . . . . . . . . . l#m#n#c+b+b+b+b+b+b+b+b+b+U+W+*@=@Y+;@(@o#f@Y@u@E@Q@@#,#p#f#0#h#q#r#s#t#u#. . . . . . . . . . . . . ",
". . . . . . . . . . . . . . . v#w#x#c+b+b+b+b+b+b+b+e+A+C+4@H+Z+y#e@6@g@N@Z@O@ #(#_#[#0#h#r#z#A#B#C#. . . . . . . . . . . . . . ",
". . . . . . . . . . . . . . . . D#E#F#c+b+b+b+b+b+b+e+g+G#4@I+`+,@:@7@h@t@C@P@/#>#:#f#H#q#z#I#J#K#. . . . . . . . . . . . . . . ",
". . . . . . . . . . . . . . . . $ L#M#N#c+b+b+b+b+b+e+g+O#F+]@-@'@:@8@i@t@D@Q@.#,#<#P#Q#r#R#S#T#+ . . . . . . . . . . . . . . . ",
". . . . . . . . . . . . . . . . . + U#V#W#c+b+b+b+b+e+g+O#X+I+-@'@<@8@i@u@D@Q@@#,#<#9#Q#X#Y#Z#`#. . . . . . . . . . . . . . . . ",
". . . . . . . . . . . . . . . . . . .  $.$+$@$c+b+b+e+g+O#X+I+-@'@<@8@i@u@D@Q@@#,#}##$$$%$$#+ . . . . . . . . . . . . . . . . . ",
". . . . . . . . . . . . . . . . . . . . &$*$=$-$;$c+>$g+O#X+]@ @'@:@8@i@t@D@P@,$'$)$!$~$c#. . . . . . . . . . . . . . . . . . . ",
". . . . . . . . . . . . . . . . . . . . . #.{$]$^$/$($g+_$:$<$[$y#}$|$1$2$3$4$5$6$7$8$9$. . . . . . . . . . . . . . . . . . . . ",
". . . . . . . . . . . . . . . . . . . . . . . 0$a$b$c$d$e$f$g$h$i$j$k$l$m$n$o$p$q$r$. . . . . . . . . . . . . . . . . . . . . . ",
". . . . . . . . . . . . . . . . . . . . . . . . . $ s$t$u$v$w$x$y$z$A$B$C$D$f.$ . . . . . . . . . . . . . . . . . . . . . . . . ",
". . . . . . . . . . . . . . . . . . . . . . . . . . . . . . `#E$9$9$`#. . . . . . . . . . . . . . . . . . . . . . . . . . . . . ",
". . . . . . . . . . . . . . . . . . . . . . . . . . . . . . . . . . . . . . . . . . . . . . . . . . . . . . . . . . . . . . . . ",
". . . . . . . . . . . . . . . . . . . . . . . . . . . . . . . . . . . . . . . . . . . . . . . . . . . . . . . . . . . . . . . . ",
". . . . . . . . . . . . . . . . . . . . . . . . . . . . . . . . . . . . . . . . . . . . . . . . . . . . . . . . . . . . . . . . ",
". . . . . . . . . . . . . . . . . . . . . . . . . . . . . . . . . . . . . . . . . . . . . . . . . . . . . . . . . . . . . . . . ",
". . . . . . . . . . . . . . . . . . . . . . . . . . . . . . . . . . . . . . . . . . . . . . . . . . . . . . . . . . . . . . . . ",
". . . . . . . . . . . . . . . . . . . . . . . . . . . . . . . . . . . . . . . . . . . . . . . . . . . . . . . . . . . . . . . . ",
". . . . . . . . . . . . . . . . . . . . . . . . . . . . . . . . . . . . . . . . . . . . . . . . . . . . . . . . . . . . . . . . ",
". . . . . . . . . . . . . . . . . . . . . . . . . . . . . . . . . . . . . . . . . . . . . . . . . . . . . . . . . . . . . . . . ",
". . . . . . . . . . . . . . . . . . . . . . . . . . . . . . . . . . . . . . . . . . . . . . . . . . . . . . . . . . . . . . . . ",
". . . . . . . . . . . . . . . . . . . . . . . . . . . . . . . . . . . . . . . . . . . . . . . . . . . . . . . . . . . . . . . . "};
